<svg width="1009" height="88" viewBox="0 0 1009 88" fill="none" xmlns="http://www.w3.org/2000/svg">
<rect x="0.299988" y="0.713867" width="1008.45" height="87.2656" rx="35" fill="white" fill-opacity="0.57"/>
<rect x="2.79999" y="3.21387" width="1003.45" height="82.2656" rx="32.5" stroke="#888C0D" stroke-opacity="0.92" stroke-width="5"/>
<path d="M103.175 77.0377C111.662 77.0377 118.541 69.96 118.541 61.2292C118.541 52.4984 111.662 45.4207 103.175 45.4207C94.6885 45.4207 87.8087 52.4984 87.8087 61.2292C87.8087 69.96 94.6885 77.0377 103.175 77.0377Z" fill="white"/>
<path d="M68.405 43.8851L65.0772 47.1576L65.689 51.1097L72.5891 57.7302L76.602 58.3091L80.0032 54.7094L89.6194 55.4394L99.9207 52.6453L107.726 45.4207L110.907 33.5643L105.646 20.2982L94.8068 12.8219L83.9671 11.8654L73.2009 17.353L68.0135 24.5273L65.7624 31.9281L68.405 43.8851Z" fill="#B6E128"/>
<path d="M103.86 33.8412C103.86 42.3748 94.5376 49.2973 85.6555 49.2973C76.7733 49.2973 71.7328 41.7455 71.7328 33.8412C71.8732 29.6055 73.6429 25.6005 76.653 22.7068C79.663 19.8131 83.6669 18.2677 87.7843 18.4103C91.904 18.2676 95.9105 19.8123 98.9244 22.7053C101.938 25.5982 103.713 29.6032 103.86 33.8412Z" fill="white"/>
<path d="M52.2801 66.1127L57.6387 72.4059L55.6323 76.0056L51.5949 77.2642L47.5087 74.2183L47.0438 69.36L52.2801 66.1127Z" fill="#B6E128"/>
<path d="M91.9684 25.4083C89.4686 25.605 87.075 26.5306 85.0682 28.0766C84.1706 28.645 83.3482 29.3304 82.6214 30.1156C82.1075 30.6694 80.3458 32.3812 80.3458 33.1364C80.3458 34.4957 82.1565 32.0036 82.3033 31.8022C83.0732 30.7875 83.97 29.8819 84.9704 29.1087C86.8876 27.5611 89.1815 26.5858 91.6014 26.2894C92.1152 26.239 92.7514 25.4083 91.9684 25.4083Z" fill="#FFBBBC"/>
<path d="M81.3 25.5845C81.9867 24.9971 82.7056 24.4508 83.4533 23.9483C84.0161 23.5959 85.9001 23.2938 86.1693 22.8155C87.197 21.3555 83.0618 23.2183 82.7682 23.3945C81.7894 24.0238 78.8531 25.9873 78.8531 27.397C78.8531 28.8066 80.8351 25.9621 81.3 25.5845Z" fill="#FFBBBC"/>
<path d="M117 60.2726C116.413 59.5174 116.388 60.4488 116.217 60.7508C115.814 62.1121 115.315 63.4413 114.724 64.7281C113.313 66.54 111.489 67.9664 109.415 68.8817C109.145 69.0075 108.069 69.3851 108.754 69.8886C109.439 70.392 110.467 69.3096 110.834 69.1082C112.576 68.1035 114.113 66.7614 115.361 65.1561C115.899 64.5268 117.758 61.2543 117 60.2726Z" fill="#FFBBBC"/>
<path d="M118.909 64.4764C118.199 64.4764 116.168 68.1265 115.434 68.7558C114.7 69.3851 112.18 70.7193 113.892 70.8452C114.724 70.8452 116.462 68.9824 116.975 68.3279C117.489 67.6734 120.059 64.4764 118.909 64.4764Z" fill="#FFBBBC"/>
<path d="M101.144 23.9232C99.3533 21.9766 97.1829 20.4411 94.7752 19.4174C92.3675 18.3936 89.7767 17.9046 87.1725 17.9824C84.1083 18.1452 81.1395 19.1331 78.563 20.8472C75.9865 22.5613 73.8928 24.9414 72.4913 27.7494C71.2983 30.8145 71.0102 34.1734 71.663 37.406C72.3158 40.6387 73.8806 43.6016 76.1616 45.9242C83.0128 53.476 93.7057 50.0525 99.8963 43.5579C102.351 41.1127 104.053 37.9788 104.79 34.5461C105.065 32.604 104.876 30.6224 104.241 28.7718C103.606 26.9213 102.543 25.2573 101.144 23.9232ZM102.808 36.5095C102.254 35.3667 101.443 34.3757 100.444 33.6185C99.4438 32.8613 98.2833 32.3596 97.0579 32.1547C88.6407 30.6191 82.3767 40.8896 80.0766 47.8121C76.9593 45.9876 74.5606 43.0988 73.2959 39.6462C72.0312 36.1935 71.9803 32.3946 73.1519 28.9074C76.4063 20.55 86.7321 17.1517 94.3419 20.6004C96.5877 21.485 98.5901 22.9192 100.176 24.7789C101.762 26.6386 102.884 28.8678 103.444 31.2736V31.0722C103.614 32.9106 103.397 34.7651 102.808 36.5095Z" fill="#361041"/>
<path d="M112.767 60.7761C112.797 59.688 112.464 58.6222 111.823 57.7564C111.181 56.8905 110.271 56.2771 109.243 56.0184H109.39C105.564 54.557 101.376 54.4331 97.4739 55.666C99.1622 53.4759 102.368 52.897 104.57 51.1601C106.845 49.0856 108.628 46.5022 109.782 43.6082C111.349 40.3036 112.066 36.6406 111.865 32.9694C111.664 29.2982 110.55 25.7415 108.632 22.6393C106.875 19.4879 104.495 16.7507 101.646 14.6044C98.7965 12.4581 95.5415 10.9504 92.0908 10.1788C88.2977 9.53202 84.4086 9.84494 80.7594 11.0905C77.1102 12.3361 73.8106 14.4768 71.1455 17.3278C64.906 24.6783 61.725 34.5964 66.6188 43.4572C65.8433 43.8031 65.1578 44.332 64.6179 45.0011C64.0781 45.6702 63.6989 46.4607 63.5112 47.3086C63.3041 48.1342 63.3041 49.0003 63.5112 49.8259C63.6336 50.279 64.8081 51.8649 64.7836 52.167C64.7836 52.9725 62.3368 54.8353 61.6761 55.4142L60.159 56.8994C58.1526 58.8377 56.0728 60.7005 54.1397 62.7144C53.178 63.8089 51.9909 64.6689 50.6652 65.2316C49.6379 65.517 48.6814 66.0237 47.8588 66.718C47.0362 67.4124 46.3664 68.2786 45.8937 69.2593C45.5243 70.2593 45.3835 71.3333 45.4822 72.3983C45.5808 73.4633 45.9164 74.4906 46.4628 75.4008C47.0093 76.3109 47.752 77.0796 48.6334 77.6471C49.5149 78.2147 50.5115 78.566 51.546 78.6739C55.6568 79.2025 57.8834 76.6349 58.7398 72.859C59.1803 71.0214 61.1867 69.6369 62.508 68.2272C63.8293 66.8175 65.5177 65.1561 66.8635 63.6206C67.7688 62.5381 68.6986 61.4557 69.6284 60.3985C69.971 59.9957 70.5827 59.014 71.0232 58.8881C71.4636 58.7622 73.2498 59.7943 73.9105 59.9202C74.9394 60.142 76.0074 60.0743 77.0021 59.7243C77.9967 59.3744 78.8813 58.755 79.5628 57.9315C80.4681 56.6729 79.8319 56.4715 81.5203 56.6477C82.9356 56.7818 84.3566 56.8406 85.7778 56.8239C85.0438 59.014 84.2118 61.1285 83.5267 63.3185C82.9608 64.507 82.6282 65.7987 82.5479 67.1196C82.7437 68.202 83.3065 68.1768 84.4565 68.2272C87.2949 68.3531 90.1822 67.9503 93.0206 67.8748C98.4037 67.6986 105.084 68.2524 109.904 65.3575C110.681 64.8591 111.34 64.1897 111.835 63.3975C112.331 62.6053 112.649 61.71 112.767 60.7761ZM55.6812 74.0421C55.3784 74.6648 54.903 75.1812 54.3151 75.5261C53.7272 75.8711 53.0531 76.0292 52.378 75.9804C51.4545 75.8359 50.5906 75.4225 49.8882 74.7891C49.1858 74.1557 48.6743 73.3287 48.414 72.4059C48.2183 69.7627 49.7353 69.1838 51.4482 67.6734C52.2312 70.1907 54.1887 70.82 55.6812 72.4562C56.3174 73.1107 56.3419 73.01 55.6812 74.0421ZM76.5776 56.4212C74.4488 57.9064 71.1944 54.9863 69.8731 53.2242C69.0167 52.2425 68.0624 51.3866 67.1816 50.43C66.7835 50.0842 66.496 49.6231 66.3563 49.1068C66.2167 48.5904 66.2314 48.0428 66.3986 47.5352C66.6677 46.78 67.8422 45.3703 68.7231 45.471C69.604 45.5717 69.9465 46.6289 70.387 47.2834C71.4001 48.7153 72.6025 49.9947 73.9594 51.0845C75.0116 51.9404 76.602 52.4187 77.5074 53.3249C78.4127 54.2311 77.7521 55.5653 76.5776 56.3708V56.4212ZM90.5003 53.7528C82.8416 54.6591 75.2807 53.048 70.754 46.201C68.0848 42.2232 66.8534 37.4096 67.2736 32.5954C67.6937 27.7812 69.7388 23.2702 73.0541 19.8451C75.6508 16.9982 78.9734 14.9598 82.6424 13.9628C86.3114 12.9657 90.179 13.0501 93.8036 14.2064C97.9818 15.7238 101.652 18.4368 104.383 22.0265C107.114 25.6162 108.791 29.9334 109.219 34.4705C109.218 38.7386 107.764 42.8716 105.108 46.1507C103.307 48.3728 101.08 50.1899 98.5674 51.4891C96.0544 52.7883 93.3084 53.5417 90.5003 53.7025V53.7528Z" fill="#361041"/>
<path d="M83.5756 47.8121C88.8364 48.5925 98.1345 43.7593 99.4558 39.3037C100.777 34.8481 94.5621 34.2692 90.4513 37.9192C86.3406 41.5693 83.0373 47.359 83.5756 47.8121Z" fill="#888C0D"/>
<path d="M93.094 59.0139L94.3419 56.2197L89.4481 56.7735C89.4481 56.7735 86.2183 63.6205 87.2949 64.3254C88.3715 65.0302 107.898 64.854 108.607 60.4236C109.023 57.4028 99.0644 58.6867 93.094 59.0139Z" fill="#888C0D"/>
</svg>
